<svg width="512" height="512" viewBox="0 0 512 512" xmlns="http://www.w3.org/2000/svg" role="img" aria-label="Claw Wallet logo">
  <defs>
    <linearGradient id="bg" x1="0" y1="0" x2="1" y2="1">
      <stop offset="0%" stop-color="#0F172A"/>
      <stop offset="100%" stop-color="#1E293B"/>
    </linearGradient>
    <linearGradient id="claw" x1="0" y1="0" x2="1" y2="1">
      <stop offset="0%" stop-color="#FB7185"/>
      <stop offset="100%" stop-color="#F43F5E"/>
    </linearGradient>
    <linearGradient id="coin" x1="0" y1="0" x2="0" y2="1">
      <stop offset="0%" stop-color="#22D3EE"/>
      <stop offset="100%" stop-color="#0891B2"/>
    </linearGradient>
  </defs>

  <rect x="24" y="24" width="464" height="464" rx="96" fill="url(#bg)"/>

  <path d="M145 178c47-53 118-70 182-47l-35 42c-33-8-67 2-89 25-22 23-30 56-21 88l-43 31c-28-47-26-104 6-139z" fill="url(#claw)"/>
  <path d="M346 122l72 5-6 73-28-21-58 70-36-30 58-70-22-27z" fill="url(#claw)"/>

  <circle cx="256" cy="290" r="92" fill="url(#coin)"/>
  <path d="M256 242c-19 0-34 12-34 27 0 16 11 24 34 30 17 4 21 7 21 14 0 8-8 13-20 13-12 0-24-5-35-13l-14 28c12 10 27 16 42 18v20h22v-20c20-3 35-16 35-34 0-20-13-28-37-34-14-3-18-7-18-13s6-11 16-11c10 0 20 3 30 10l12-28c-10-7-22-11-32-12v-18h-22v18z" fill="#E0F2FE"/>

  <text x="256" y="445" text-anchor="middle" font-family="Inter,Segoe UI,Arial,sans-serif" font-size="42" font-weight="700" fill="#E2E8F0">CLAW</text>
</svg>
